# xmcd
#
# Track frame offsets:
#	150
#	12219
#	26273
#	38690
#	50173
#	61566
#	72112
#	82748
#	96460
#	109904
#	123860
#	136791
#	148680
#	160701
#	175761
#	188868
#	203957
#	218401
#	231546
#	244117
#
# Disc length: 3458 seconds
#
# Revision: 1
# Processed by: cddbd v1.5.2PL0 Copyright (c) Steve Scherf et al.
# Submitted via: audiograbber 1.83.01
#
DISCID=080d8014
DTITLE=Muddy Waters - Father Of Chicago Blues CD-1
DYEAR=2006
DGENRE=Blues
TTITLE0=I Can't Be Satisfied
TTITLE1=I Feel Like Going Home
TTITLE2=Train Fare Home Blues
TTITLE3=Sittin' Here And Drinkin' (Whiskey Blues)
TTITLE4=You're Gonna Miss Me
TTITLE5=Stand Here Tremblin'
TTITLE6=Muddy Jumps One
TTITLE7=Screamin' And Cryin'
TTITLE8=Rollin' And Tumblin' (Pt.1)
TTITLE9=Rollin' Stone
TTITLE10=Louisiana Blues
TTITLE11=Long Distance Call
TTITLE12=Howling Wolf
TTITLE13=Honey Bee
TTITLE14=She Moves Me
TTITLE15=They Call Me Muddy Waters
TTITLE16=Still A Fool
TTITLE17=All Night Long
TTITLE18=Stuff You Gotta Watch
TTITLE19=Standing Around Crying
EXTD=
EXTT0=
EXTT1=
EXTT2=
EXTT3=
EXTT4=
EXTT5=
EXTT6=
EXTT7=
EXTT8=
EXTT9=
EXTT10=
EXTT11=
EXTT12=
EXTT13=
EXTT14=
EXTT15=
EXTT16=
EXTT17=
EXTT18=
EXTT19=
PLAYORDER=
